<?xml version="1.0" encoding="UTF-8" standalone="no"?>
<!DOCTYPE svg PUBLIC "-//W3C//DTD SVG 1.1//EN"
 "http://www.w3.org/Graphics/SVG/1.1/DTD/svg11.dtd">
<!-- Generated by graphviz version 14.1.5 (20260411.2331)
 -->
<!-- Pages: 1 -->
<svg width="174pt" height="219pt"
 viewBox="0.00 0.00 174.00 219.00" xmlns="http://www.w3.org/2000/svg" xmlns:xlink="http://www.w3.org/1999/xlink">
<g id="graph0" class="graph" transform="scale(1 1) rotate(0) translate(4 214.5)">
<polygon fill="white" stroke="none" points="-4,4 -4,-214.5 169.83,-214.5 169.83,4 -4,4"/>
<text xml:space="preserve" text-anchor="start" x="44.29" y="-188.5" font-family="Times,serif" font-weight="bold" font-size="20.00">(3+2)*10</text>
<!-- 140679451625424 -->
<g id="node1" class="node">
<title>140679451625424</title>
<ellipse fill="none" stroke="black" cx="100" cy="-162" rx="27" ry="18"/>
<text xml:space="preserve" text-anchor="middle" x="100" y="-156.95" font-family="Times,serif" font-size="14.00">*</text>
</g>
<!-- 140679451592080 -->
<g id="node2" class="node">
<title>140679451592080</title>
<ellipse fill="none" stroke="black" cx="63" cy="-90" rx="27" ry="18"/>
<text xml:space="preserve" text-anchor="middle" x="63" y="-84.95" font-family="Times,serif" font-size="14.00">+</text>
</g>
<!-- 140679451625424&#45;&gt;140679451592080 -->
<g id="edge3" class="edge">
<title>140679451625424&#45;&gt;140679451592080</title>
<path fill="none" stroke="black" d="M91.42,-144.76C87.08,-136.55 81.7,-126.37 76.79,-117.09"/>
<polygon fill="black" stroke="black" points="80.01,-115.69 72.24,-108.49 73.82,-118.96 80.01,-115.69"/>
</g>
<!-- 140679451625104 -->
<g id="node5" class="node">
<title>140679451625104</title>
<ellipse fill="none" stroke="black" cx="137" cy="-90" rx="28.83" ry="18"/>
<text xml:space="preserve" text-anchor="middle" x="137" y="-84.95" font-family="Times,serif" font-size="14.00">10.0</text>
</g>
<!-- 140679451625424&#45;&gt;140679451625104 -->
<g id="edge4" class="edge">
<title>140679451625424&#45;&gt;140679451625104</title>
<path fill="none" stroke="black" d="M108.58,-144.76C112.82,-136.75 118.04,-126.88 122.84,-117.79"/>
<polygon fill="black" stroke="black" points="125.92,-119.45 127.5,-108.97 119.73,-116.18 125.92,-119.45"/>
</g>
<!-- 140679450901680 -->
<g id="node3" class="node">
<title>140679450901680</title>
<ellipse fill="none" stroke="black" cx="27" cy="-18" rx="27" ry="18"/>
<text xml:space="preserve" text-anchor="middle" x="27" y="-12.95" font-family="Times,serif" font-size="14.00">3.0</text>
</g>
<!-- 140679451592080&#45;&gt;140679450901680 -->
<g id="edge1" class="edge">
<title>140679451592080&#45;&gt;140679450901680</title>
<path fill="none" stroke="black" d="M54.65,-72.76C50.42,-64.55 45.19,-54.37 40.42,-45.09"/>
<polygon fill="black" stroke="black" points="43.68,-43.79 36,-36.49 37.46,-46.99 43.68,-43.79"/>
</g>
<!-- 140679451624784 -->
<g id="node4" class="node">
<title>140679451624784</title>
<ellipse fill="none" stroke="black" cx="99" cy="-18" rx="27" ry="18"/>
<text xml:space="preserve" text-anchor="middle" x="99" y="-12.95" font-family="Times,serif" font-size="14.00">2.0</text>
</g>
<!-- 140679451592080&#45;&gt;140679451624784 -->
<g id="edge2" class="edge">
<title>140679451592080&#45;&gt;140679451624784</title>
<path fill="none" stroke="black" d="M71.35,-72.76C75.58,-64.55 80.81,-54.37 85.58,-45.09"/>
<polygon fill="black" stroke="black" points="88.54,-46.99 90,-36.49 82.32,-43.79 88.54,-46.99"/>
</g>
</g>
</svg>
