<?xml version="1.0" encoding="UTF-8" standalone="no"?>
<!DOCTYPE svg PUBLIC "-//W3C//DTD SVG 1.1//EN"
 "http://www.w3.org/Graphics/SVG/1.1/DTD/svg11.dtd">
<!-- Generated by graphviz version 14.1.5 (20260411.2331)
 -->
<!-- Pages: 1 -->
<svg width="173pt" height="219pt"
 viewBox="0.00 0.00 173.00 219.00" xmlns="http://www.w3.org/2000/svg" xmlns:xlink="http://www.w3.org/1999/xlink">
<g id="graph0" class="graph" transform="scale(1 1) rotate(0) translate(4 214.5)">
<polygon fill="white" stroke="none" points="-4,4 -4,-214.5 168.83,-214.5 168.83,4 -4,4"/>
<text xml:space="preserve" text-anchor="start" x="50.54" y="-188.5" font-family="Times,serif" font-weight="bold" font-size="20.00">3+2*10</text>
<!-- 139872166988368 -->
<g id="node1" class="node">
<title>139872166988368</title>
<ellipse fill="none" stroke="black" cx="63" cy="-162" rx="27" ry="18"/>
<text xml:space="preserve" text-anchor="middle" x="63" y="-156.95" font-family="Times,serif" font-size="14.00">+</text>
</g>
<!-- 139872166840368 -->
<g id="node2" class="node">
<title>139872166840368</title>
<ellipse fill="none" stroke="black" cx="27" cy="-90" rx="27" ry="18"/>
<text xml:space="preserve" text-anchor="middle" x="27" y="-84.95" font-family="Times,serif" font-size="14.00">3.0</text>
</g>
<!-- 139872166988368&#45;&gt;139872166840368 -->
<g id="edge1" class="edge">
<title>139872166988368&#45;&gt;139872166840368</title>
<path fill="none" stroke="black" d="M54.65,-144.76C50.42,-136.55 45.19,-126.37 40.42,-117.09"/>
<polygon fill="black" stroke="black" points="43.68,-115.79 36,-108.49 37.46,-118.99 43.68,-115.79"/>
</g>
<!-- 139872166840704 -->
<g id="node3" class="node">
<title>139872166840704</title>
<ellipse fill="none" stroke="black" cx="99" cy="-90" rx="27" ry="18"/>
<text xml:space="preserve" text-anchor="middle" x="99" y="-84.95" font-family="Times,serif" font-size="14.00">*</text>
</g>
<!-- 139872166988368&#45;&gt;139872166840704 -->
<g id="edge4" class="edge">
<title>139872166988368&#45;&gt;139872166840704</title>
<path fill="none" stroke="black" d="M71.35,-144.76C75.58,-136.55 80.81,-126.37 85.58,-117.09"/>
<polygon fill="black" stroke="black" points="88.54,-118.99 90,-108.49 82.32,-115.79 88.54,-118.99"/>
</g>
<!-- 139872166987728 -->
<g id="node4" class="node">
<title>139872166987728</title>
<ellipse fill="none" stroke="black" cx="62" cy="-18" rx="27" ry="18"/>
<text xml:space="preserve" text-anchor="middle" x="62" y="-12.95" font-family="Times,serif" font-size="14.00">2.0</text>
</g>
<!-- 139872166840704&#45;&gt;139872166987728 -->
<g id="edge2" class="edge">
<title>139872166840704&#45;&gt;139872166987728</title>
<path fill="none" stroke="black" d="M90.42,-72.76C86.08,-64.55 80.7,-54.37 75.79,-45.09"/>
<polygon fill="black" stroke="black" points="79.01,-43.69 71.24,-36.49 72.82,-46.96 79.01,-43.69"/>
</g>
<!-- 139872166988048 -->
<g id="node5" class="node">
<title>139872166988048</title>
<ellipse fill="none" stroke="black" cx="136" cy="-18" rx="28.83" ry="18"/>
<text xml:space="preserve" text-anchor="middle" x="136" y="-12.95" font-family="Times,serif" font-size="14.00">10.0</text>
</g>
<!-- 139872166840704&#45;&gt;139872166988048 -->
<g id="edge3" class="edge">
<title>139872166840704&#45;&gt;139872166988048</title>
<path fill="none" stroke="black" d="M107.58,-72.76C111.82,-64.75 117.04,-54.88 121.84,-45.79"/>
<polygon fill="black" stroke="black" points="124.92,-47.45 126.5,-36.97 118.73,-44.18 124.92,-47.45"/>
</g>
</g>
</svg>
