<?xml version="1.0" encoding="UTF-8" standalone="no"?>
<!-- Created with Inkscape (http://www.inkscape.org/) -->

<svg
   viewBox="0 0 512 512"
   version="1.1"
   id="svg1"
   xmlns="http://www.w3.org/2000/svg"
   xmlns:svg="http://www.w3.org/2000/svg">
  <defs
     id="defs1" />
  <g
     id="layer1">
    <path
       id="path11"
       style="baseline-shift:baseline;display:inline;overflow:visible;opacity:1;vector-effect:none;enable-background:accumulate;stop-color:#000000;stop-opacity:1;fill:#ffffff"
       d="m 253.12109,118.00977 -148,214 5.75782,3.98046 81.8678,-118.3757 a 5.4908479,5.4908479 176.08852 0 1 8.56495,-0.58562 l 50.38209,55.00087 a 6.7709706,6.7709706 179.80579 0 0 10.01658,-0.034 l 48.98323,-54.207 a 5.430507,5.430507 3.831326 0 1 8.50785,0.56977 l 77.91187,113.61992 5.77344,-3.95704 -144,-210 L 256,120 Z m 2.86719,8.16015 51.35732,74.89911 a 8.7254142,8.7254142 93.831895 0 1 -0.72232,10.78428 l -44.94813,49.7421 a 6.7707902,6.7707902 179.80625 0 1 -10.01644,0.0339 l -46.26318,-50.50652 a 8.6294564,8.6294564 86.089092 0 1 -0.73405,-10.73731 z"
       transform="matrix(1.2427184,0,0,1.2427184,-62.135922,-62.135922)" />
    <circle
       style="fill:#ff6600;stroke-width:1.24272"
       id="path1"
       cx="256"
       cy="86.990288"
       r="86.990288" />
    <circle
       style="fill:#00ccff;stroke-width:1.24272"
       id="circle1"
       cx="86.990288"
       cy="425.0097"
       r="86.990288" />
    <circle
       style="fill:#00ccff;stroke-width:1.24272"
       id="circle2"
       cx="425.0097"
       cy="425.0097"
       r="86.990288" />
    <g
       id="text3"
       style="fill:#ffffff">
      <path
         style="-inkscape-font-specification:'Rubik, Normal';fill:#ffffff"
         d="m 254.56837,118.84367 q -1.19301,0 -2.02812,-0.71581 -0.7158,-0.8351 -0.7158,-2.02811 V 91.285137 h -24.45671 q -1.19301,0 -2.02812,-0.715806 -0.7158,-0.835107 -0.7158,-2.028117 v -3.817632 q 0,-1.19301 0.7158,-1.908816 0.83511,-0.835107 2.02812,-0.835107 h 24.45671 V 57.880856 q 0,-1.19301 0.7158,-1.908816 0.83511,-0.835107 2.02812,-0.835107 h 4.17553 q 1.19301,0 1.90882,0.835107 0.83511,0.715806 0.83511,1.908816 v 24.098803 h 24.576 q 1.19301,0 1.90882,0.835107 0.83511,0.715806 0.83511,1.908816 v 3.817632 q 0,1.19301 -0.83511,2.028117 -0.71581,0.715806 -1.90882,0.715806 h -24.576 v 24.814613 q 0,1.19301 -0.83511,2.02811 -0.71581,0.71581 -1.90882,0.71581 z"
         id="path4" />
      <path
         style="-inkscape-font-specification:'Rubik, Normal';fill:#ffffff"
         d="m 254.56836,50.787109 c -1.81023,0 -3.8145,0.820362 -5.10352,2.109375 -1.33152,1.331533 -1.99023,3.31914 -1.99023,4.984375 v 19.75 h -20.10742 c -1.81023,0 -3.8145,0.818409 -5.10352,2.107422 -1.33152,1.331533 -1.99023,3.31914 -1.99023,4.984375 v 3.81836 c 0,1.665235 0.62044,3.5256 1.76367,4.859375 l 0.21875,0.253906 0.25391,0.216797 c 1.33377,1.143229 3.19217,1.763672 4.85742,1.763672 h 20.10742 v 20.464844 c 0,1.66524 0.62044,3.5256 1.76367,4.85937 l 0.2168,0.25391 0.2539,0.2168 c 1.33378,1.14323 3.19413,1.76367 4.85938,1.76367 h 4.17578 c 1.66525,0 3.65285,-0.65871 4.98438,-1.99023 1.28903,-1.28902 2.10937,-3.29329 2.10937,-5.10352 V 95.634766 h 20.22656 c 1.66525,0 3.65285,-0.658712 4.98438,-1.990235 1.28902,-1.289015 2.10937,-3.293285 2.10937,-5.103515 v -3.81836 c 0,-1.706479 -0.84164,-3.660558 -2.1582,-4.935547 -1.275,-1.316475 -3.22913,-2.15625 -4.93555,-2.15625 h -20.22656 v -19.75 c 0,-1.707745 -0.84184,-3.664603 -2.16016,-4.939453 -1.27509,-1.315261 -3.22804,-2.154297 -4.93359,-2.154297 z m 1.60547,8.699219 h 0.96484 v 26.84375 h 27.32031 v 0.605469 h -27.32031 v 27.558593 h -0.96484 V 86.935547 h -27.20117 v -0.605469 h 27.20117 z"
         id="path5" />
    </g>
    <g
       id="text4"
       style="fill:#ffffff">
      <path
         style="-inkscape-font-specification:'Rubik, Normal';fill:#ffffff"
         d="m 86.990259,467.36159 q -7.515963,0 -13.12311,-1.78952 -5.607147,-1.90881 -9.424779,-5.01064 -3.817632,-3.10182 -5.845749,-6.80016 -1.908816,-3.81763 -2.028117,-7.63526 0,-1.07371 0.715806,-1.67021 0.715806,-0.71581 1.789515,-0.71581 h 5.845749 q 1.073709,0 1.908816,0.59651 0.954408,0.4772 1.431612,2.02811 1.19301,4.29484 4.056234,6.68086 2.982525,2.38602 6.800157,3.34043 3.936933,0.8351 7.873866,0.8351 8.231769,0 13.361711,-3.93693 5.12994,-3.93693 5.12994,-11.5722 0,-7.75456 -4.65273,-11.09499 -4.652744,-3.34043 -12.884513,-3.34043 H 76.611072 q -1.19301,0 -2.028117,-0.7158 -0.715806,-0.71581 -0.715806,-2.02812 v -3.22113 q 0,-1.07371 0.357903,-1.78951 0.477204,-0.83511 0.954408,-1.43161 L 98.323854,392.79846 H 63.130059 q -1.19301,0 -2.028117,-0.7158 -0.715806,-0.71581 -0.715806,-2.02812 v -4.53344 q 0,-1.31231 0.715806,-2.02812 0.835107,-0.8351 2.028117,-0.8351 h 47.601101 q 1.31231,0 2.02812,0.8351 0.8351,0.71581 0.8351,2.02812 v 4.29484 q 0,0.8351 -0.4772,1.55091 -0.3579,0.59651 -0.83511,1.19301 l -23.025092,25.64972 1.908816,0.1193 q 7.873866,0.2386 13.719616,2.86322 5.96505,2.62462 9.18618,7.87387 3.34042,5.12994 3.34042,13.00381 0,7.99316 -3.93693,13.60031 -3.93693,5.60715 -10.85639,8.70897 -6.800157,2.98253 -15.628431,2.98253 z"
         id="path6" />
      <path
         style="-inkscape-font-specification:'Rubik, Normal';fill:#ffffff"
         d="m 63.130859,378.30859 c -1.810218,0 -3.814495,0.82037 -5.103515,2.10938 h -0.002 c -1.416954,1.41696 -1.988282,3.43782 -1.988282,5.10351 v 4.53321 c 0,1.66569 0.571328,3.68655 1.988282,5.10351 l 0.11914,0.11719 0.126953,0.10938 c 1.333775,1.14322 3.19414,1.76367 4.859375,1.76367 h 25.316407 l -16.574219,18.11133 -0.08984,0.11328 c -0.494868,0.61858 -0.927314,1.27856 -1.333984,1.99023 l -0.06055,0.10547 -0.05469,0.10742 c -0.627642,1.25528 -0.816406,2.53529 -0.816406,3.73438 v 3.22265 c 0,1.6657 0.573281,3.68656 1.990234,5.10352 l 0.117188,0.11719 0.126953,0.10937 c 1.333775,1.14323 3.194139,1.76172 4.859375,1.76172 h 11.333984 c 4.899506,0 8.23298,1.00716 10.347657,2.52539 1.806561,1.29703 2.839841,3.26074 2.839841,7.56055 0,4.11607 -1.08708,6.32523 -3.429685,8.12304 -2.52856,1.94053 -5.918445,3.03711 -10.712891,3.03711 -2.291131,0 -4.582443,-0.24786 -6.892578,-0.73242 -1.921901,-0.49122 -3.547191,-1.29427 -5.017578,-2.46094 -1.139229,-0.95788 -2.022456,-2.29334 -2.628906,-4.47656 l -0.01563,-0.0586 -0.01758,-0.0566 c -0.502074,-1.63174 -1.552193,-3.43594 -3.470703,-4.49024 -1.211249,-0.74966 -2.652699,-1.20507 -4.027344,-1.20508 h -5.845703 c -1.613676,0 -3.431895,0.71562 -4.679688,1.8711 -1.377982,1.23393 -2.175781,3.23559 -2.175781,4.86523 v 0.0664 l 0.002,0.0684 c 0.100741,3.2237 0.970639,6.41393 2.486328,9.44531 l 0.03711,0.0723 0.03906,0.0742 c 1.658815,3.0249 4.006877,5.72031 6.916016,8.08398 3.015042,2.44973 6.632203,4.34484 10.765625,5.75195 l 0.04102,0.0137 0.03906,0.0117 c 4.27435,1.36416 9.08947,1.9961 14.445312,1.9961 6.375327,0 12.207507,-1.08316 17.374996,-3.34961 l 0.0156,-0.006 0.0176,-0.008 c 5.22469,-2.3421 9.54021,-5.76756 12.63672,-10.17774 3.18314,-4.53358 4.72656,-10.05673 4.72656,-16.09961 0,-5.84493 -1.25848,-11.06709 -4.02149,-15.33203 -2.59957,-4.20999 -6.42214,-7.46021 -11.08203,-9.51562 -2.59944,-1.16633 -5.4622,-1.92138 -8.464841,-2.45704 l 17.408201,-19.39257 0.0762,-0.0957 c 0.39561,-0.49449 0.75249,-1.01059 1.08008,-1.54297 0.7352,-1.12091 1.18555,-2.54932 1.18555,-3.91796 v -4.29493 c 0,-1.69878 -0.76995,-3.71125 -2.16016,-5.05664 -1.34548,-1.38694 -3.35597,-2.15625 -5.05273,-2.15625 z m 1.605469,8.69922 h 44.507812 v 2.32422 c -0.0984,0.14976 -0.19721,0.29819 -0.33008,0.4668 l -28.896482,32.1914 10.947266,0.6836 0.06836,0.002 c 4.799203,0.14543 8.793894,1.01333 12.070317,2.48438 l 0.0156,0.006 0.0137,0.008 c 3.26247,1.43548 5.54197,3.41315 7.23242,6.16797 l 0.0293,0.0488 0.0312,0.0488 c 1.67168,2.56723 2.63672,5.9967 2.63672,10.63086 0,4.61468 -1.08039,8.15699 -3.14648,11.09961 -2.14996,3.06207 -5.06919,5.43957 -9.0625,7.23242 -3.895878,1.70566 -8.475073,2.60938 -13.863286,2.60938 -4.650921,0 -8.571158,-0.56034 -11.767578,-1.57617 -3.318538,-1.13524 -5.972701,-2.57267 -8.037109,-4.25 -2.156535,-1.75218 -3.685679,-3.56985 -4.730469,-5.45313 -0.62502,-1.26615 -0.986753,-2.46622 -1.226562,-3.64258 h 3.080078 c 1.014002,3.27999 2.708149,6.20146 5.222656,8.29688 l 0.0332,0.0273 0.03516,0.0274 c 2.474339,1.97947 5.347025,3.38558 8.460938,4.16406 l 0.07617,0.0195 0.07617,0.0156 c 2.912513,0.61781 5.845182,0.92969 8.777343,0.92969 6.181247,0 11.698403,-1.52722 16.009766,-4.83594 4.49732,-3.45142 6.83203,-8.95914 6.83203,-15.02343 0,-6.03961 -2.06972,-11.47007 -6.4668,-14.62696 -4.088978,-2.93567 -9.343731,-4.15625 -15.419918,-4.15625 h -9.728515 v -1.57421 c 0.115089,-0.17957 0.238453,-0.3825 0.322265,-0.49024 L 108.19922,388.44922 H 64.736328 Z m -0.667969,60.52149 c 0.01306,0.047 0.04328,0.084 0.05664,0.13086 0.0028,0.009 -0.02463,-0.0259 -0.02148,-0.0156 z"
         id="path7" />
    </g>
    <g
       id="text5"
       style="fill:#ffffff">
      <path
         style="-inkscape-font-specification:'Rubik, Normal';fill:#ffffff"
         d="m 398.04765,466.16858 q -1.19301,0 -2.02812,-0.71581 -0.7158,-0.8351 -0.7158,-2.02811 v -3.81764 q 0,-1.07371 0.5965,-2.38602 0.59651,-1.31231 2.38602,-2.86322 l 25.29181,-25.29181 q 6.08436,-5.12995 9.54408,-8.70898 3.57903,-3.69833 5.01065,-7.03876 1.55091,-3.34042 1.55091,-6.91945 0,-6.80016 -3.81763,-10.73709 -3.81763,-4.05624 -11.3336,-4.05624 -4.77204,0 -8.23177,2.02812 -3.45973,1.90882 -5.36854,5.36854 -1.90882,3.34043 -2.62462,7.63527 -0.23861,1.55091 -1.31232,2.14742 -0.9544,0.5965 -1.78951,0.5965 h -6.20365 q -1.07371,0 -1.78952,-0.5965 -0.7158,-0.71581 -0.7158,-1.67022 0.1193,-4.53344 1.90881,-9.06687 1.78952,-4.65274 5.24925,-8.35107 3.57903,-3.81764 8.70897,-6.08435 5.24924,-2.26672 12.1687,-2.26672 9.42478,0 15.38983,3.45973 6.08435,3.34042 8.94758,8.94757 2.86322,5.60715 2.86322,12.288 0,5.24925 -1.78951,9.66339 -1.78952,4.29483 -5.24925,8.47037 -3.34043,4.05623 -8.35107,8.35107 l -22.90579,23.26369 h 37.22191 q 1.31231,0 2.02812,0.71581 0.83511,0.7158 0.83511,2.02811 v 4.89135 q 0,1.19301 -0.83511,2.02811 -0.71581,0.71581 -2.02812,0.71581 z"
         id="path2" />
      <path
         style="-inkscape-font-specification:'Rubik, Normal';fill:#ffffff"
         d="m 424.5332,376.99609 c -5.08792,0 -9.75646,0.83615 -13.89453,2.62305 l -0.0156,0.008 -0.0176,0.008 c -3.90362,1.72484 -7.32163,4.0997 -10.12305,7.08789 h -0.002 l -0.002,0.002 c -2.66852,2.85254 -4.73352,6.13457 -6.125,9.74609 -1.35789,3.44605 -2.11168,6.98004 -2.20508,10.5293 l -0.002,0.0566 v 0.0586 c 0,1.72365 0.82959,3.58348 1.99024,4.74414 l 0.14062,0.14063 0.15039,0.12695 c 1.29886,1.08237 3.05296,1.60352 4.57422,1.60352 h 6.20313 c 1.52925,0 2.85193,-0.52681 3.94726,-1.1875 1.96136,-1.11942 3.16246,-3.34216 3.45508,-5.24414 l -0.01,0.0527 c 0.40419,-2.42517 1.12097,-4.45829 2.11132,-6.1914 l 0.0156,-0.0293 0.0156,-0.0273 c 0.89905,-1.62952 2.03258,-2.76306 3.66211,-3.66211 l 0.0488,-0.0274 0.0488,-0.0273 c 1.55381,-0.91086 3.46803,-1.43164 6.0332,-1.43164 4.2282,0 6.59728,1.02071 8.16602,2.6875 l 0.0215,0.0234 0.0234,0.0234 c 1.67383,1.72614 2.58984,3.98949 2.58984,7.70899 0,1.75776 -0.3624,3.39909 -1.14648,5.08789 l -0.0273,0.0586 -0.0254,0.0606 c -0.6664,1.55491 -2.00621,3.52301 -4.13868,5.72656 v 0.002 h -0.002 c -2.14268,2.21658 -5.23495,5.04572 -9.2207,8.40625 l -0.14063,0.11914 -25.42187,25.42188 0.22656,-0.21094 c -1.47108,1.27494 -2.6875,2.57267 -3.49609,4.35156 -0.58258,1.28169 -0.98633,2.66429 -0.98633,4.18555 v 3.81641 c 0,1.66523 0.61848,3.5256 1.76172,4.85937 l 0.21875,0.25391 0.2539,0.21875 c 1.33377,1.14323 3.19218,1.76172 4.85742,1.76172 h 52.61329 c 1.6657,0 3.68655,-0.57132 5.10351,-1.98828 1.28903,-1.28902 2.10938,-3.29524 2.10938,-5.10547 v -4.89063 c 0,-1.75005 -0.78757,-3.85863 -2.26172,-5.19922 -1.4084,-1.32231 -3.33725,-1.89453 -4.95117,-1.89453 h -26.83399 l 15.60156,-15.8457 0.0156,-0.0156 c 3.36114,-2.90336 6.2425,-5.76814 8.59961,-8.6289 2.53886,-3.06415 4.53273,-6.25239 5.91601,-9.57227 l 0.008,-0.0195 0.008,-0.0195 c 1.41854,-3.49909 2.10742,-7.30311 2.10742,-11.29687 0,-5.07526 -1.11088,-9.9044 -3.33789,-14.26563 -2.30874,-4.52127 -6.00029,-8.17102 -10.67969,-10.75195 -4.82953,-2.78941 -10.73411,-4.02735 -17.53125,-4.02735 z m 0,8.69922 c 5.75097,0 10.09034,1.06536 13.20703,2.87305 l 0.0449,0.0254 0.043,0.0234 c 3.40859,1.87137 5.66755,4.17495 7.16797,7.11328 1.59062,3.11497 2.38672,6.478 2.38672,10.31055 0,2.99746 -0.50227,5.62821 -1.46484,8.00976 -1.00275,2.40044 -2.50366,4.85302 -4.57227,7.34961 l -0.004,0.004 -0.006,0.006 c -2.02742,2.46186 -4.63488,5.07877 -7.82422,7.8125 l -0.13867,0.12109 -30.32227,30.79492 h 46.12305 v 1.67969 h -49.52149 v -2.21094 c 0,0.0897 -0.006,-0.11788 0.20703,-0.58594 -0.0132,0.0292 0.36047,-0.58401 1.2754,-1.37695 l 0.11718,-0.10156 25.39844,-25.39844 0.004,-0.004 c 3.96576,-3.3555 7.19205,-6.27533 9.59375,-8.75976 2.62326,-2.7107 4.60944,-5.41794 5.85351,-8.29688 1.26435,-2.74676 1.93164,-5.69471 1.93164,-8.68554 0,-5.33464 -1.62374,-10.21511 -5.02343,-13.73633 -3.52104,-3.72582 -8.69506,-5.40625 -14.47657,-5.40625 -3.77722,0 -7.33063,0.83003 -10.3789,2.60351 -2.9516,1.64049 -5.37498,4.06151 -7.01172,7.01563 -1.40021,2.45846 -2.32362,5.21808 -2.90235,8.15625 h -3.13476 c 0.23684,-1.77049 0.62203,-3.5534 1.3457,-5.38672 l 0.008,-0.0176 0.006,-0.0176 c 0.99383,-2.58395 2.42482,-4.86435 4.36328,-6.9375 l 0.002,-0.002 c 6.4e-4,-6.8e-4 0.001,-0.001 0.002,-0.002 1.96464,-2.09453 4.34388,-3.77122 7.26758,-5.06641 2.85881,-1.23246 6.30073,-1.90625 10.43359,-1.90625 z"
         id="path3" />
    </g>
  </g>
</svg>
