<?xml version="1.0" encoding="UTF-8" standalone="no"?>
<!DOCTYPE svg PUBLIC "-//W3C//DTD SVG 1.1//EN"
 "http://www.w3.org/Graphics/SVG/1.1/DTD/svg11.dtd">
<!-- Generated by graphviz version 14.1.5 (20260411.2331)
 -->
<!-- Pages: 1 -->
<svg width="182pt" height="221pt"
 viewBox="0.00 0.00 182.00 221.00" xmlns="http://www.w3.org/2000/svg" xmlns:xlink="http://www.w3.org/1999/xlink">
<g id="graph0" class="graph" transform="scale(1 1) rotate(0) translate(4 216.75)">
<text xml:space="preserve" text-anchor="start" x="45.16" y="-190.75" font-family="JetBrains Mono" font-weight="bold" font-size="20.00">(3+2)*3</text>
<!-- 140547349122256 -->
<g id="node1" class="node">
<title>140547349122256</title>
<ellipse fill="#ff6600" stroke="white" cx="106.16" cy="-162" rx="27" ry="18"/>
<text xml:space="preserve" text-anchor="middle" x="106.16" y="-157.32" font-family="JetBrains Mono" font-size="14.00" fill="white">*</text>
</g>
<!-- 140547349073264 -->
<g id="node2" class="node">
<title>140547349073264</title>
<ellipse fill="#ff6600" stroke="white" cx="69.16" cy="-90" rx="27" ry="18"/>
<text xml:space="preserve" text-anchor="middle" x="69.16" y="-85.33" font-family="JetBrains Mono" font-size="14.00" fill="white">+</text>
</g>
<!-- 140547349122256&#45;&gt;140547349073264 -->
<g id="edge3" class="edge">
<title>140547349122256&#45;&gt;140547349073264</title>
<path fill="none" stroke="black" d="M97.58,-144.76C93.24,-136.55 87.86,-126.37 82.96,-117.09"/>
<polygon fill="black" stroke="black" points="86.17,-115.69 78.41,-108.49 79.98,-118.96 86.17,-115.69"/>
</g>
<!-- 140547349121936 -->
<g id="node5" class="node">
<title>140547349121936</title>
<ellipse fill="#00ccff" stroke="white" cx="144.16" cy="-90" rx="30.16" ry="18"/>
<text xml:space="preserve" text-anchor="middle" x="144.16" y="-85.33" font-family="JetBrains Mono" font-size="14.00" fill="#0b132b">3.0</text>
</g>
<!-- 140547349122256&#45;&gt;140547349121936 -->
<g id="edge4" class="edge">
<title>140547349122256&#45;&gt;140547349121936</title>
<path fill="none" stroke="black" d="M114.98,-144.76C119.37,-136.67 124.8,-126.66 129.78,-117.49"/>
<polygon fill="black" stroke="black" points="132.72,-119.42 134.41,-108.96 126.57,-116.08 132.72,-119.42"/>
</g>
<!-- 140547349072928 -->
<g id="node3" class="node">
<title>140547349072928</title>
<ellipse fill="#00ccff" stroke="white" cx="30.16" cy="-18" rx="30.16" ry="18"/>
<text xml:space="preserve" text-anchor="middle" x="30.16" y="-13.32" font-family="JetBrains Mono" font-size="14.00" fill="#0b132b">3.0</text>
</g>
<!-- 140547349073264&#45;&gt;140547349072928 -->
<g id="edge1" class="edge">
<title>140547349073264&#45;&gt;140547349072928</title>
<path fill="none" stroke="black" d="M60.12,-72.76C55.61,-64.67 50.03,-54.66 44.92,-45.49"/>
<polygon fill="black" stroke="black" points="48.09,-43.99 40.17,-36.96 41.98,-47.39 48.09,-43.99"/>
</g>
<!-- 140547349121616 -->
<g id="node4" class="node">
<title>140547349121616</title>
<ellipse fill="#00ccff" stroke="white" cx="108.16" cy="-18" rx="30.16" ry="18"/>
<text xml:space="preserve" text-anchor="middle" x="108.16" y="-13.32" font-family="JetBrains Mono" font-size="14.00" fill="#0b132b">2.0</text>
</g>
<!-- 140547349073264&#45;&gt;140547349121616 -->
<g id="edge2" class="edge">
<title>140547349073264&#45;&gt;140547349121616</title>
<path fill="none" stroke="black" d="M78.21,-72.76C82.72,-64.67 88.29,-54.66 93.4,-45.49"/>
<polygon fill="black" stroke="black" points="96.35,-47.39 98.16,-36.96 90.24,-43.99 96.35,-47.39"/>
</g>
</g>
</svg>
